<svg width="297" height="124" viewBox="0 0 297 124" fill="none" xmlns="http://www.w3.org/2000/svg">
<path d="M49.5155 1.52877C22.1667 1.52877 0 23.6573 0 50.9589C0 78.2605 22.1667 100.389 49.5155 100.389C76.8642 100.389 99.0464 78.2605 99.0464 50.9589C99.0464 23.6573 76.8642 1.52877 49.5155 1.52877ZM49.5155 78.8628C34.0777 78.8628 21.5634 66.3701 21.5634 50.9589C21.5634 35.5477 34.0777 23.055 49.5155 23.055C64.9533 23.055 77.483 35.5477 77.483 50.9589C77.483 66.3701 64.9533 78.8628 49.5155 78.8628Z" fill="#EAD3D9"/>
<path d="M70.29 122.487H28.7564C23.8992 122.487 19.9702 118.564 19.9702 113.716C19.9702 108.867 23.8992 104.944 28.7564 104.944H70.29C75.1472 104.944 79.0763 108.867 79.0763 113.716C79.0763 118.549 75.1472 122.487 70.29 122.487Z" fill="#FF0040"/>
<path d="M99.0464 2.99577V21.9432H120.826V121.004H142.405V21.9432H164.185V2.99577H99.0464Z" fill="#EAD3D9"/>
<path d="M215.665 64.7796C213.206 62.1081 210.437 59.7918 207.405 57.877C204.435 56.0085 201.496 54.3407 198.634 52.9201C193.947 50.5883 190.126 48.0867 187.265 45.4924C184.542 43.0217 183.212 39.5781 183.212 34.9763C183.212 32.3049 183.599 29.9577 184.357 28.0428C185.115 26.1435 186.135 24.5684 187.435 23.3948C188.734 22.2057 190.188 21.3255 191.782 20.7696C193.406 20.2137 195.092 19.9357 196.824 19.9357C202.965 19.9357 207.931 22.3138 211.999 27.209L212.912 28.3054L225.148 12.4L224.544 11.7051C221.28 7.87547 217.181 4.94147 212.401 2.98032C207.622 0.988294 202.161 0 196.159 0C192.014 0 187.868 0.710336 183.831 2.10012C179.778 3.50535 176.081 5.69813 172.879 8.63213C169.661 11.5661 167.032 15.2877 165.067 19.7196C163.102 24.1514 162.097 29.4944 162.097 35.6249C162.097 40.5355 162.747 44.813 164.046 48.3492C165.33 51.8854 167.109 55.0202 169.321 57.6762C171.518 60.3168 174.07 62.6177 176.932 64.5171C179.747 66.3856 182.794 68.1305 185.981 69.6593C190.9 72.1146 194.999 74.8015 198.17 77.6583C201.217 80.407 202.703 84.0359 202.703 88.7457C202.703 93.5328 201.434 97.2852 198.928 99.8949C196.407 102.52 193.298 103.802 189.43 103.802C185.903 103.802 182.408 102.968 179.035 101.3C175.648 99.6324 172.724 97.3161 170.326 94.4129L169.398 93.2857L157.348 109.562L157.936 110.241C161.308 114.163 165.84 117.453 171.425 120.016C177.009 122.579 183.165 123.876 189.755 123.876C194.349 123.876 198.773 123.089 202.935 121.514C207.111 119.939 210.793 117.576 213.902 114.472C216.996 111.384 219.502 107.539 221.358 103.076C223.214 98.5978 224.142 93.3938 224.142 87.603C224.142 82.5689 223.338 78.137 221.76 74.4154C220.198 70.7248 218.14 67.4665 215.665 64.7796Z" fill="#EAD3D9"/>
<path d="M283.171 93.5945C281.408 96.2969 279.165 98.6132 276.504 100.482C273.921 102.304 270.811 103.215 267.254 103.215C263.479 103.215 260.153 102.165 257.369 100.096C254.523 97.9801 252.125 95.0615 250.253 91.4172C248.351 87.7111 246.897 83.2792 245.938 78.2451C244.979 73.1646 244.484 67.7136 244.484 62.0309C244.484 56.2401 244.979 50.7273 245.938 45.6468C246.897 40.5973 248.351 36.1654 250.253 32.4747C252.125 28.8304 254.507 25.9118 257.292 23.7808C260.03 21.7116 263.263 20.6615 266.929 20.6615C273.689 20.6615 279.056 23.6573 283.357 29.8187L284.207 31.054L297 15.5039L296.521 14.809C293.257 10.0991 288.972 6.42391 283.805 3.89141C278.654 1.37435 272.59 0.0926526 265.784 0.0926526C259.179 0.0926526 253.069 1.6523 247.624 4.74072C242.194 7.8137 237.523 12.1684 233.733 17.6658C229.958 23.1323 227.019 29.7415 224.978 37.3081C222.936 44.8284 221.915 53.1517 221.915 62.0463C221.915 70.941 222.951 79.2334 224.978 86.7073C227.019 94.2122 229.943 100.775 233.64 106.257C237.383 111.77 242.024 116.155 247.438 119.275C252.883 122.409 259.055 124 265.769 124C273.147 124 279.381 122.518 284.285 119.584C289.157 116.68 293.21 112.82 296.35 108.126L296.83 107.415L283.991 92.3746L283.171 93.5945Z" fill="#EAD3D9"/>
</svg>
