<?xml version="1.0" encoding="utf-8"?>
<!-- Generator: Adobe Illustrator 24.0.1, SVG Export Plug-In . SVG Version: 6.00 Build 0)  -->
<svg version="1.1" id="Layer_1" xmlns="http://www.w3.org/2000/svg" xmlns:xlink="http://www.w3.org/1999/xlink" x="0px" y="0px"
	 viewBox="0 0 1859.1 802.7" style="enable-background:new 0 0 1859.1 802.7;" xml:space="preserve">
<style type="text/css">
	.st0{fill:#EAD3D9;}
	.st1{fill:#FF0040;}
</style>
<g>
	<path class="st0" d="M320.1,9.9C143.3,9.9,0,153.2,0,330c0,176.8,143.3,320.1,320.1,320.1S640.3,506.8,640.3,330
		C640.3,153.2,496.9,9.9,320.1,9.9z M320.1,510.7c-99.8,0-180.7-80.9-180.7-180.7s80.9-180.7,180.7-180.7S500.9,230.2,500.9,330
		S419.9,510.7,320.1,510.7z"/>
	<path class="st1" d="M454.4,793.2H185.9c-31.4,0-56.8-25.4-56.8-56.8v0c0-31.4,25.4-56.8,56.8-56.8h268.5
		c31.4,0,56.8,25.4,56.8,56.8v0C511.2,767.7,485.8,793.2,454.4,793.2z"/>
</g>
<g>
	<polygon class="st0" points="579.3,19.4 579.3,142.1 720.1,142.1 720.1,783.6 859.7,783.6 859.7,142.1 1000.5,142.1 1000.5,19.4 	
		"/>
	<path class="st0" d="M1333.2,419.5c-15.9-17.3-33.8-32.3-53.4-44.7c-19.2-12.1-38.2-22.9-56.7-32.1c-30.3-15.1-55-31.3-73.5-48.1
		c-17.6-16-26.2-38.3-26.2-68.1c0-17.3,2.5-32.5,7.4-44.9c4.9-12.3,11.5-22.5,19.9-30.1c8.4-7.7,17.8-13.4,28.1-17
		c10.5-3.6,21.4-5.4,32.6-5.4c39.7,0,71.8,15.4,98.1,47.1l5.9,7.1l79.1-103l-3.9-4.5c-21.1-24.8-47.6-43.8-78.5-56.5
		C1281.3,6.4,1246,0,1207.2,0c-26.8,0-53.6,4.6-79.7,13.6c-26.2,9.1-50.1,23.3-70.8,42.3c-20.8,19-37.8,43.1-50.5,71.8
		c-12.7,28.7-19.2,63.3-19.2,103c0,31.8,4.2,59.5,12.6,82.4c8.3,22.9,19.8,43.2,34.1,60.4c14.2,17.1,30.7,32,49.2,44.3
		c18.2,12.1,37.9,23.4,58.5,33.3c31.8,15.9,58.3,33.3,78.8,51.8c19.7,17.8,29.3,41.3,29.3,71.8c0,31-8.2,55.3-24.4,72.2
		c-16.3,17-36.4,25.3-61.4,25.3c-22.8,0-45.4-5.4-67.2-16.2c-21.9-10.8-40.8-25.8-56.3-44.6l-6-7.3l-77.9,105.4l3.8,4.4
		c21.8,25.4,51.1,46.7,87.2,63.3c36.1,16.6,75.9,25,118.5,25c29.7,0,58.3-5.1,85.2-15.3c27-10.2,50.8-25.5,70.9-45.6
		c20-20,36.2-44.9,48.2-73.8c12-29,18-62.7,18-100.2c0-32.6-5.2-61.3-15.4-85.4C1362.5,458,1349.3,436.9,1333.2,419.5z"/>
	<path class="st0" d="M1769.6,606.1c-11.4,17.5-25.9,32.5-43.1,44.6c-16.7,11.8-36.8,17.7-59.8,17.7c-24.4,0-45.9-6.8-63.9-20.2
		c-18.4-13.7-33.9-32.6-46-56.2c-12.3-24-21.7-52.7-27.9-85.3c-6.2-32.9-9.4-68.2-9.4-105c0-37.5,3.2-73.2,9.4-106.1
		c6.2-32.7,15.6-61.4,27.9-85.3c12.1-23.6,27.5-42.5,45.5-56.3c17.7-13.4,38.6-20.2,62.3-20.2c43.7,0,78.4,19.4,106.2,59.3l5.5,8
		l82.7-100.7l-3.1-4.5c-21.1-30.5-48.8-54.3-82.2-70.7c-33.3-16.3-72.5-24.6-116.5-24.6c-42.7,0-82.2,10.1-117.4,30.1
		c-35.1,19.9-65.3,48.1-89.8,83.7c-24.4,35.4-43.4,78.2-56.6,127.2c-13.2,48.7-19.8,102.6-19.8,160.2c0,57.6,6.7,111.3,19.8,159.7
		c13.2,48.6,32.1,91.1,56,126.6c24.2,35.7,54.2,64.1,89.2,84.3c35.2,20.3,75.1,30.6,118.5,30.6c47.7,0,88-9.6,119.7-28.6
		c31.5-18.8,57.7-43.8,78-74.2l3.1-4.6l-83-97.4L1769.6,606.1z"/>
</g>
</svg>
